<?xml version="1.0" encoding="UTF-8" standalone="no"?>
<svg
   xmlns:dc="http://purl.org/dc/elements/1.1/"
   xmlns:cc="http://creativecommons.org/ns#"
   xmlns:rdf="http://www.w3.org/1999/02/22-rdf-syntax-ns#"
   xmlns:svg="http://www.w3.org/2000/svg"
   xmlns="http://www.w3.org/2000/svg"
   xmlns:sodipodi="http://sodipodi.sourceforge.net/DTD/sodipodi-0.dtd"
   xmlns:inkscape="http://www.inkscape.org/namespaces/inkscape"
   height="16"
   viewBox="0 0 16 16"
   width="16"
   version="1.1"
   id="svg865"
   sodipodi:docname="icon_spatial.svg"
   inkscape:version="0.92.3 (2405546, 2018-03-11)">
  <metadata
     id="metadata871">
    <rdf:RDF>
      <cc:Work
         rdf:about="">
        <dc:format>image/svg+xml</dc:format>
        <dc:type
           rdf:resource="http://purl.org/dc/dcmitype/StillImage" />
      </cc:Work>
    </rdf:RDF>
  </metadata>
  <defs
     id="defs869" />
  <sodipodi:namedview
     pagecolor="#ffffff"
     bordercolor="#666666"
     borderopacity="1"
     objecttolerance="10"
     gridtolerance="10"
     guidetolerance="10"
     inkscape:pageopacity="0"
     inkscape:pageshadow="2"
     inkscape:window-width="1920"
     inkscape:window-height="1017"
     id="namedview867"
     showgrid="false"
     inkscape:zoom="52.125"
     inkscape:cx="9.1490719"
     inkscape:cy="6.2682958"
     inkscape:window-x="0"
     inkscape:window-y="30"
     inkscape:window-maximized="1"
     inkscape:current-layer="svg865" />
  <path
     d="M 8,2 C 4.6862915,2 2,4.6862915 2,8 2,11.313708 4.6862915,14 8,14 8,12 8,4 8,2 Z M 8,4 C 8,2 8,14 8,12 5.790861,12 4,10.209139 4,8 4,5.790861 5.790861,4 8,4 Z"
     id="path863"
     inkscape:connector-curvature="0"
     style="fill:#fc9c9c;fill-opacity:0.99607999"
     sodipodi:nodetypes="csccccsc" />
  <path
     id="path879"
     d="m 7.7697842,2 v 12 l 3.6562428,-0.05652 c 2.283052,-0.03529 4.149513,-1.64834 4.149513,-3.86434 V 6.0054516 c 0,-2.2159998 -1.838287,-3.9824339 -4.121557,-4 z m 4.7145878,3.0791367 c 0.570836,0 1.030389,0.446 1.030389,1 v 2 c 0,0.554 -0.459553,1 -1.030389,1 -0.570836,0 -1.030389,-0.446 -1.030389,-1 v -2 c 0,-0.554 0.459553,-1 1.030389,-1 z m -1.946096,5.1074003 c 0.93941,-0.02151 1.415904,1.088589 0.738583,1.7207 -0.772658,0.74987 -1.821317,1.1719 -2.9140449,1.1719 l 7.21e-5,-2.00003 c 0.5469822,0 1.0702654,-0.21059 1.4570736,-0.58594 0.1884332,-0.190189 0.4466712,-0.300405 0.7184602,-0.30664 z"
     inkscape:connector-curvature="0"
     style="fill:#fc9c9c;stroke-width:1.01508093"
     sodipodi:nodetypes="ccsssscsssssssccccccc" />
</svg>
